<svg xmlns="http://www.w3.org/2000/svg" width="800" height="480" viewBox="0 0 800 480" fill="none">
  <defs>
    <linearGradient id="bg" x1="0" y1="0" x2="800" y2="480" gradientUnits="userSpaceOnUse">
      <stop stop-color="#10B981" stop-opacity="0.3"/>
      <stop offset="0.52" stop-color="#00E5FF" stop-opacity="0.18"/>
      <stop offset="1" stop-color="#8B5CF6" stop-opacity="0.16"/>
    </linearGradient>
    <filter id="glow" x="-40%" y="-40%" width="180%" height="180%" color-interpolation-filters="sRGB">
      <feGaussianBlur stdDeviation="6" result="blur"/>
      <feColorMatrix in="blur" type="matrix" values="0 0 0 0 0 0 0 0 0 0.898 0 0 0 0 1 0 0 0 0.45 0"/>
      <feBlend in="SourceGraphic"/>
    </filter>
  </defs>
  <rect width="800" height="480" fill="#101522"/>
  <rect width="800" height="480" fill="url(#bg)"/>
  <path d="M72 118H302M72 158H246M72 198H278M72 238H220" stroke="#9CA3AF" stroke-opacity="0.35" stroke-width="10" stroke-linecap="round"/>
  <rect x="48" y="72" width="300" height="220" rx="18" fill="#050816" fill-opacity="0.62" stroke="#00E5FF" stroke-opacity="0.38"/>
  <circle cx="86" cy="104" r="8" fill="#10B981"/>
  <circle cx="116" cy="104" r="8" fill="#00E5FF"/>
  <circle cx="146" cy="104" r="8" fill="#8B5CF6"/>
  <path d="M446 144L534 94L622 144V244L534 294L446 244V144Z" stroke="#00E5FF" stroke-opacity="0.6" stroke-width="3" fill="#050816" fill-opacity="0.36"/>
  <circle cx="534" cy="94" r="15" fill="#00E5FF" fill-opacity="0.9" filter="url(#glow)"/>
  <circle cx="622" cy="144" r="15" fill="#10B981" fill-opacity="0.9" filter="url(#glow)"/>
  <circle cx="622" cy="244" r="15" fill="#8B5CF6" fill-opacity="0.9" filter="url(#glow)"/>
  <circle cx="534" cy="294" r="15" fill="#00E5FF" fill-opacity="0.9" filter="url(#glow)"/>
  <circle cx="446" cy="244" r="15" fill="#10B981" fill-opacity="0.9" filter="url(#glow)"/>
  <circle cx="446" cy="144" r="15" fill="#8B5CF6" fill-opacity="0.9" filter="url(#glow)"/>
  <path d="M390 318C422 286 452 286 484 318C516 350 550 350 582 318C614 286 646 286 678 318" stroke="#00E5FF" stroke-opacity="0.42" stroke-width="4" stroke-linecap="round"/>
  <path d="M390 350C422 318 452 318 484 350C516 382 550 382 582 350C614 318 646 318 678 350" stroke="#10B981" stroke-opacity="0.34" stroke-width="4" stroke-linecap="round"/>
  <rect x="104" y="322" width="210" height="38" rx="9" fill="#050816" fill-opacity="0.64" stroke="#10B981" stroke-opacity="0.4"/>
  <text x="128" y="347" font-family="Inter, Arial" font-size="15" font-weight="700" fill="#D1FAE5">RAG + AST + Graph</text>
  <text x="60" y="420" font-family="Syne, Arial" font-size="28" font-weight="700" fill="#FFFFFF">AI Codebase Knowledge</text>
</svg>
